<svg width="3237px" height="2916px" viewBox="0 0 3237 2916" version="1.1" xmlns="http://www.w3.org/2000/svg" xmlns:xlink="http://www.w3.org/1999/xlink">
    <title>DCMPMap2023</title>
    <g id="DCMPMap2023" stroke="none" stroke-width="1" fill="none" fill-rule="evenodd">

        <g id="County-Lines" transform="translate(1526.1667, 1423.8333) scale(1, -1) translate(-1526.1667, -1423.8333)translate(249.6667, 26.3333)">
            <path d="M16.5559996,2267.82541 L115.087997,2169.24541 C115.987997,2168.35208 116.52533,2167.11208 116.546664,2165.75875 L116.56533,2006.23075 C116.56533,1998.51075 119.674664,1991.51875 124.89333,1986.25208 L265.809327,1845.39475 C271.333327,1839.87075 278.583993,1837.12542 285.830659,1837.11742 L535.98132,1835.76809 C537.250653,1835.77209 538.50532,1835.27609 539.47332,1834.30675 L688.521316,1686.26276 L680.92265,1677.88409 L532.94532,1824.45209 L285.767993,1825.78409 C275.687993,1825.80675 265.53466,1829.64142 257.797327,1837.38009 L116.86133,1978.25608 C109.663997,1985.51875 105.231997,1995.35075 105.231997,2006.22942 L105.214664,2163.09208 L0.0759999731,2268.29341 L16.5559996,2267.82541 Z" id="path242" fill="#DBD4CB"></path>
        </g>
        
        <g id="Rooms" transform="translate(1539.6107, 1431.5254) scale(1, -1) translate(-1539.6107, -1431.5254)translate(57.1354, 134.5182)">
            <g id="C05" transform="translate(1044.306, 1338.1992)">
                <path d="M1,43.6666656 C1,66.7613317 19.7213329,85.4826646 42.8146656,85.4826646 C65.910665,85.4826646 84.6319979,66.7613317 84.6319979,43.6666656 C84.6319979,20.5733328 65.910665,1.85199998 42.8146656,1.85199998 C19.7213329,1.85199998 1,20.5733328 1,43.6666656" id="Bullet-BG" fill="#FFFFFF"></path>
                <path d="M21.4817328,43.6666656 C21.4817328,55.4506653 31.0323992,65.0013317 42.8150656,65.0013317 C54.5990653,65.0013317 64.1510651,55.4506653 64.1510651,43.6666656 C64.1510651,31.8839992 54.5990653,22.3319995 42.8150656,22.3319995 C31.0323992,22.3319995 21.4817328,31.8839992 21.4817328,43.6666656 M32.1483992,43.6666656 C32.1483992,49.5586655 36.9243991,54.3346653 42.8150656,54.3346653 C48.7070655,54.3346653 53.4830654,49.5586655 53.4830654,43.6666656 C53.4830654,37.7759991 48.7070655,32.9999992 42.8150656,32.9999992 C36.9243991,32.9999992 32.1483992,37.7759991 32.1483992,43.6666656 M10.8137331,43.6666656 C10.8137331,61.3413318 25.1403994,75.6693315 42.8150656,75.6693315 C60.4897318,75.6693315 74.8177315,61.3413318 74.8177315,43.6666656 C74.8177315,25.9919994 60.4897318,11.6653331 42.8150656,11.6653331 C25.1403994,11.6653331 10.8137331,25.9919994 10.8137331,43.6666656 M0.145733355,43.6666656 C0.145733355,67.2333317 19.2497329,86.3359979 42.8150656,86.3359979 C66.3817317,86.3359979 85.4843979,67.2333317 85.4843979,43.6666656 C85.4843979,20.1013329 66.3817317,0.997333333 42.8150656,0.997333333 C19.2497329,0.997333333 0.145733355,20.1013329 0.145733355,43.6666656" id="Bullet" fill="#231F20"></path>
            <circle r="65" cy="44.5" cx="44.5" style="fill: rgba(0, 0, 0, 0); pointer-events: all;"></circle></g>
        </g>
    </g>
</svg>
